# Blender 3.3.0
# www.blender.org
mtllib Drawer.mtl
o Cube
v -0.248732 -0.396000 0.010060
v -0.248732 -0.400000 0.006060
v -0.252732 -0.396000 0.006060
v -0.248732 0.447167 0.006060
v -0.248732 0.443167 0.010060
v -0.252732 0.443167 0.006060
v -0.248732 -0.400000 -0.010060
v -0.252732 -0.396000 -0.010060
v -0.252732 0.443167 -0.010060
v -0.248732 0.447167 -0.014060
v 0.248732 -0.396000 0.010060
v 0.252732 -0.396000 0.006060
v 0.248732 -0.400000 0.006060
v 0.252732 0.443167 0.006060
v 0.248732 0.443167 0.010060
v 0.248732 0.447167 0.006060
v 0.252732 -0.396000 -0.014060
v 0.252732 -0.396000 -0.014060
v 0.248732 -0.400000 -0.010060
v 0.252732 -0.396000 -0.006060
v 0.252732 0.443167 -0.010060
v 0.252732 0.451167 -0.014060
v 0.252732 0.443167 -0.010060
v 0.252732 0.443167 -0.014060
v 0.252732 0.443167 -0.616691
v 0.252732 0.443167 -0.616691
v 0.248732 0.447167 -0.620691
v 0.252732 0.443167 -0.624691
v 0.252732 -0.396000 -0.616691
v 0.252732 -0.396000 -0.624691
v 0.248732 -0.400000 -0.620691
v 0.252732 -0.396000 -0.616691
v -0.252732 -0.396000 -0.620691
v -0.248732 -0.400000 -0.616691
v -0.248732 0.447167 -0.620691
v -0.252732 0.443167 -0.620691
v 0.252732 0.443167 -0.637507
v 0.248732 0.447167 -0.637507
v 0.248732 0.443167 -0.641507
v 0.252732 -0.396000 -0.637507
v 0.248732 -0.396000 -0.641507
v 0.248732 -0.400000 -0.637507
v -0.252732 -0.396000 -0.637507
v -0.248732 -0.400000 -0.637507
v -0.248732 -0.396000 -0.641507
v -0.252732 0.443167 -0.637507
v -0.248732 0.443167 -0.641507
v -0.248732 0.447167 -0.637507
v -0.248732 -0.363224 -0.014060
v -0.252732 -0.367224 -0.010060
v 0.248732 -0.367224 -0.010060
v 0.252732 -0.367224 -0.014060
v 0.248732 -0.363224 -0.014060
v -0.252732 -0.367224 -0.620691
v -0.248732 -0.363224 -0.616691
v 0.248732 -0.367224 -0.620691
v 0.248732 -0.363224 -0.616691
v 0.252732 -0.367224 -0.616691
v 0.248732 0.414348 -0.010060
v 0.248734 0.410346 -0.014060
v 0.252732 0.414470 -0.014060
v -0.248734 0.394932 -0.014060
v -0.252732 0.398810 -0.010060
v 0.248732 0.414348 -0.620691
v 0.252732 0.414470 -0.616691
v 0.248734 0.410346 -0.616691
v -0.248734 0.394932 -0.616691
v -0.252732 0.398808 -0.620691
v -0.226756 -0.396000 -0.010060
v -0.226756 -0.400000 -0.014060
v -0.222756 -0.396000 -0.014060
v -0.226756 0.443167 -0.010060
v -0.222756 0.443167 -0.014060
v -0.226756 0.447167 -0.014060
v -0.226756 -0.396000 -0.620691
v -0.222756 -0.396000 -0.616691
v -0.226756 -0.400000 -0.616691
v -0.226756 0.443167 -0.620691
v -0.226756 0.447167 -0.616691
v -0.222756 0.443167 -0.616691
vn 0.0035 -0.9938 0.1111
vn 1.0000 -0.0000 -0.0000
vn -0.0000 -0.0000 1.0000
vn 0.0257 -0.1414 0.9896
vn 0.0387 -0.2127 0.9763
vn -0.0000 1.0000 -0.0000
vn -1.0000 -0.0000 -0.0000
vn -0.0079 -0.0023 -1.0000
vn -0.0046 0.0522 0.9986
vn -0.0040 -0.0611 -0.9981
vn -0.0000 -0.0000 -1.0000
vn 0.0310 -0.9995 -0.0000
vn 0.0257 0.1414 -0.9896
vn 0.0387 0.2128 -0.9763
vn 0.9729 -0.0319 0.2290
vn 0.9725 -0.0321 0.2306
vn 0.0080 -1.0000 -0.0000
vn -0.9966 0.0824 -0.0000
vn -0.0000 -1.0000 -0.0000
vn 0.0080 1.0000 0.0033
vn -0.0039 0.0024 1.0000
vn -0.9926 -0.1211 -0.0000
vn 0.5774 0.5773 -0.5773
vn 0.5774 -0.5773 -0.5773
vn -0.5774 0.5774 -0.5773
vn -0.5774 -0.5773 -0.5773
vn -0.7071 0.7071 -0.0000
vn -0.7071 -0.7071 -0.0000
vn -0.5773 -0.5774 0.5773
vn -0.5773 0.5774 0.5773
vn 0.5773 0.5774 0.5773
vn 0.5773 -0.5774 0.5773
vn 0.5774 0.5773 0.5773
vn 0.5774 0.5773 -0.5774
vn 0.5891 -0.5711 0.5717
vn 0.5891 -0.5711 -0.5717
vn 0.5773 -0.5774 0.5774
vn 0.5774 0.5773 0.5774
vn 0.5774 -0.5773 -0.5774
vn -0.9241 -0.3551 -0.1412
vn -0.0000 -0.7071 -0.7071
vn 0.7071 -0.0000 -0.7071
vn -0.7071 -0.0000 -0.7071
vn 0.7071 0.7071 -0.0000
vn -0.0000 0.7071 -0.7071
vn 0.7071 -0.7071 -0.0000
vn -0.7071 -0.0000 0.7071
vn 0.7071 -0.0000 0.7071
vn -0.0000 0.7071 0.7071
vn -0.0000 -0.7071 0.7071
vn 0.0219 -0.7068 0.7071
vn 0.0219 -0.7069 -0.7070
vn -0.6962 -0.7179 -0.0000
vn 0.7180 -0.6961 -0.0000
vn 0.8931 -0.0621 0.4456
vn 0.0756 0.4154 -0.9065
vn 0.0756 -0.4154 0.9065
vt 0.626978 0.500000
vt 0.623820 0.498022
vt 0.626978 0.549701
vt 0.625000 0.549701
vt 0.623820 0.549701
vt 0.375000 0.498022
vt 0.373022 0.549701
vt 0.376180 0.498022
vt 0.376180 0.500000
vt 0.376180 0.549701
vt 0.000000 0.000000
vt 0.626978 0.750000
vt 0.625000 0.750000
vt 0.000000 0.000000
vt 0.623820 0.750000
vt 0.000000 0.000000
vt 0.376180 0.750000
vt 0.373022 0.750000
vt 0.000000 0.000000
vt 0.373022 0.799701
vt 0.375000 0.750000
vt 0.873022 0.500000
vt 0.623820 0.251978
vt 0.623820 0.250000
vt 0.623820 0.200299
vt 0.875000 0.549701
vt 0.625000 0.251978
vt 0.873022 0.549701
vt 0.376180 0.250000
vt 0.376180 0.200299
vt 0.376180 0.251978
vt 0.126978 0.549701
vt 0.375000 0.200299
vt 0.375000 0.251978
vt 0.875000 0.750000
vt 0.623820 -0.049701
vt 0.000000 0.000000
vt 0.000000 0.000000
vt 0.875000 0.750000
vt 0.000000 0.000000
vt 0.873022 0.750000
vt 0.623820 0.049701
vt 0.000000 0.000000
vt 0.875000 0.750000
vt 0.623820 0.000000
vt 0.875000 0.700299
vt 0.376180 0.000000
vt 0.000000 0.000000
vt 0.125000 0.799701
vt 0.375000 0.000000
vt 0.373820 -0.049701
vt 0.125000 0.750000
vt 0.376180 0.000000
vt 0.000000 0.000000
vt 0.376180 0.000000
vt 0.000000 0.000000
vt 0.376180 0.000000
vt 0.000000 0.000000
vt 0.000000 0.000000
vt 0.126978 0.750000
vt 0.000000 0.000000
vt 0.000000 0.000000
vt 0.376180 0.000000
vt 0.125000 0.750000
vt 0.875000 0.750000
vt 0.623820 0.000000
vt 0.000000 0.000000
vt 0.000000 0.000000
vt 0.623820 0.000000
vt 0.875000 0.750000
vt 0.000000 0.000000
vt 0.873022 0.750000
vt 0.000000 0.000000
vt 0.875000 0.750000
vt 0.000000 0.000000
vt 0.623820 0.750000
vt 0.000000 0.000000
vt 0.626978 0.750000
vt 0.625000 0.750000
vt 0.000000 0.000000
vt 0.373022 0.750000
vt 0.375000 0.750000
vt 0.000000 0.000000
vt 0.376180 0.750000
vt 0.376180 0.000000
vt 0.376180 1.000000
vt 0.125000 0.750000
vt 0.375000 0.998022
vt 0.126978 0.750000
vt 0.126978 0.750000
vt 0.376180 0.998022
vt 0.623820 0.000000
vt 0.623820 1.000000
vt 0.875000 0.750000
vt 0.623820 0.998022
vt 0.873022 0.750000
vt 0.625000 0.998022
vt 0.873022 0.750000
vt 0.625000 0.750000
vt 0.623820 0.750000
vt 0.626978 0.750000
vt 0.623820 0.751978
vt 0.626978 0.750000
vt 0.376180 0.750000
vt 0.376180 0.750000
vt 0.376180 0.751978
vt 0.375000 0.750000
vt 0.375000 0.751978
vt 0.373022 0.750000
vt 0.000000 0.000000
vt 0.626978 0.750000
vt 0.000000 0.000000
vt 0.625000 0.750000
vt 0.000000 0.000000
vt 0.873022 0.750000
vt 0.000000 0.000000
vt 0.875000 0.750000
vt 0.000000 0.000000
vt 0.873022 0.750000
vt 0.625000 0.750000
vt 0.626978 0.750000
vt 0.873022 0.750000
vt 0.873022 0.750000
vt 0.000000 0.000000
vt 0.875000 0.750000
vt 0.126978 0.750000
vt 0.000000 0.000000
vt 0.126977 0.750000
vt 0.000000 0.000000
vt 0.125000 0.750000
vt 0.000000 0.000000
vt 0.373023 0.750000
vt 0.375000 0.750000
vt 0.126978 0.750000
vt 0.000000 0.000000
vt 0.000000 0.000000
vt 0.126977 0.750000
vt 0.000000 0.000000
vt 0.373023 0.750000
vt 0.375000 0.750000
vt 0.623820 0.750000
vt 0.625000 0.750000
vt 0.623820 0.750000
vt 0.376180 0.750000
vt 0.376180 0.750000
vt 0.375000 0.750000
vt 0.623820 0.750000
vt 0.623820 0.750000
vt 0.625000 0.750000
vt 0.376180 0.750000
vt 0.375000 0.750000
vt 0.376180 0.750000
s 1
usemtl Material
f 16/32/1 4/7/1 10/20/1 23/52/1 22/49/1
f 36/84/2 33/76/2 43/100/2 46/104/2
f 18/38/2 32/73/2 58/124/2 52/116/2
f 9/17/3 8/15/4 69/141/5 72/144/3
f 2/3/6 13/28/6 19/41/6 7/12/6
f 6/10/2 3/5/2 8/15/2 9/17/2
f 30/69/7 28/63/7 37/85/7 40/92/7
f 36/83/8 35/80/8 27/61/8 28/62/8 30/68/8 31/71/8 34/77/8 33/75/8
f 23/52/9 10/18/9 63/133/9 59/126/9
f 49/111/6 53/119/6 57/123/6 55/121/6
f 47/106/3 45/102/3 41/95/3 39/91/3
f 31/72/10 34/78/10 54/120/10 56/122/10
f 35/81/11 27/60/11 64/134/11 68/140/11
f 60/128/12 62/132/12 67/139/12 66/137/12
f 33/76/11 36/84/13 78/150/14 75/147/11
f 26/59/2 24/56/15 61/131/16 65/136/2
f 7/11/17 34/77/17 31/71/17 32/73/17 18/38/17 19/40/17
f 73/145/2 71/143/2 76/148/2 80/152/2
f 35/82/6 10/21/6 74/146/6 79/151/6
f 22/51/7 20/42/7 12/25/7 14/30/7
f 34/78/6 31/72/6 42/98/6 44/101/6
f 10/21/18 35/82/18 68/140/18 63/133/18
f 7/13/19 34/79/19 77/149/19 70/142/19
f 7/12/3 19/41/3 51/115/3 50/113/3
f 27/60/19 35/81/19 48/109/19 38/89/19
f 34/79/7 7/13/7 50/113/7 63/133/7 10/21/7 35/82/7 68/140/7 54/120/7
f 23/54/20 24/56/20 26/59/20 27/61/20 35/80/20 10/19/20
f 23/54/21 10/19/21 9/16/21 8/14/21 7/11/21 19/40/21 20/43/21
f 34/79/22 7/13/22 50/113/22 54/120/22
f 1/1/23 2/3/23 3/4/23
f 4/6/24 5/8/24 6/9/24
f 11/23/25 12/24/25 13/27/25
f 14/29/26 15/31/26 16/34/26
f 17/35/27 18/39/27 19/41/27 20/44/27
f 21/47/6 22/50/6 23/53/6 24/55/6
f 25/58/28 26/59/28 27/61/28 28/62/28
f 29/65/27 30/70/27 31/72/27 32/74/27
f 37/87/29 38/89/29 39/90/29
f 40/93/30 41/95/30 42/97/30
f 43/99/31 44/101/31 45/103/31
f 46/104/32 47/105/32 48/107/32
f 51/115/33 52/117/33 53/119/33
f 56/122/34 57/123/34 58/125/34
f 59/126/35 60/128/35 61/130/35
f 64/135/36 65/136/36 66/138/36
f 69/141/37 70/142/37 71/143/37
f 72/144/38 73/145/38 74/146/38
f 75/147/39 76/148/39 77/149/39
f 78/150/34 79/151/34 80/152/34
f 16/33/40 22/50/40 21/47/40 14/30/40
f 4/6/41 16/34/41 15/31/41 5/8/41
f 3/5/42 6/10/42 5/8/42 1/2/42
f 22/51/7 17/36/7 20/45/7 23/53/7
f 11/23/43 15/31/43 14/30/43 12/25/43
f 2/3/44 7/12/44 8/15/44 3/5/44
f 19/41/27 13/28/27 12/26/27 20/46/27
f 13/28/45 2/3/45 1/1/45 11/22/45
f 10/20/46 4/7/46 6/10/46 9/17/46
f 28/63/7 30/69/7 29/66/7 25/57/7
f 24/56/6 26/59/6 25/58/6 21/48/6
f 32/73/6 18/38/6 17/37/6 29/67/6
f 39/91/47 41/95/47 40/93/47 37/86/47
f 45/102/48 47/106/48 46/104/48 43/100/48
f 44/101/49 42/98/49 41/96/49 45/103/49
f 38/88/50 48/108/50 47/106/50 39/91/50
f 36/84/46 46/104/46 48/109/46 35/81/46
f 37/87/28 28/64/28 27/60/28 38/89/28
f 34/78/44 44/101/44 43/100/44 33/76/44
f 30/70/27 40/94/27 42/98/27 31/72/27
s 0
f 50/112/49 51/114/49 53/118/49 49/110/49
s 1
f 55/121/45 57/123/45 56/122/45 54/120/45
f 49/111/27 55/121/27 54/120/27 50/113/27
f 57/123/44 53/119/44 52/117/44 58/125/44
f 58/125/42 32/74/42 31/72/42 56/122/42
f 51/115/48 19/41/48 18/39/48 52/117/48
f 59/126/51 63/133/51 62/132/51 60/128/51
f 66/137/52 67/139/52 68/140/52 64/134/52
f 67/139/53 62/132/53 63/133/53 68/140/53
f 60/129/54 66/138/54 65/136/54 61/131/54
f 23/54/55 59/127/55 61/131/16 24/56/15
f 64/135/42 27/61/42 26/59/42 65/136/42
f 71/143/48 73/145/48 72/144/48 69/141/48
f 75/147/42 78/150/42 80/152/42 76/148/42
f 70/142/46 77/149/46 76/148/46 71/143/46
f 79/151/44 74/146/44 73/145/44 80/152/44
f 35/82/56 79/151/56 78/150/14 36/84/13
f 77/149/41 34/79/41 33/76/41 75/147/41
f 69/141/5 8/15/4 7/13/57 70/142/57
f 9/17/49 72/144/49 74/146/49 10/21/49
f 15/31/11 11/23/11 1/2/11 5/8/11
o Cube.001
v 0.242628 -0.173491 -0.014060
v 0.252732 -0.173491 -0.014060
v 0.242628 -0.173491 -0.616691
v 0.252732 -0.173491 -0.616691
v 0.242628 -0.363224 -0.014060
v 0.252732 -0.363224 -0.014060
v 0.242628 -0.363224 -0.616691
v 0.252732 -0.363224 -0.616691
v 0.252732 -0.173491 -0.464445
v 0.242628 -0.363224 -0.464445
v 0.242628 -0.173491 -0.464445
v 0.252732 -0.363224 -0.464445
v 0.242628 -0.173491 -0.161471
v 0.252732 -0.363224 -0.161471
v 0.252732 -0.173491 -0.161471
v 0.242628 -0.363224 -0.161471
v 0.242628 -0.192977 -0.197765
v 0.242628 -0.192977 -0.428151
v 0.252732 -0.192977 -0.428151
v 0.252732 -0.192977 -0.197765
v 0.242628 -0.363224 -0.428151
v 0.242628 -0.363224 -0.197765
v 0.252732 -0.363224 -0.197765
v 0.252732 -0.363224 -0.428151
v 0.242628 0.020037 -0.014060
v 0.252732 0.020037 -0.014060
v 0.242628 0.020037 -0.616691
v 0.252732 0.020037 -0.616691
v 0.242628 -0.169696 -0.014060
v 0.252732 -0.169696 -0.014060
v 0.242628 -0.169696 -0.616691
v 0.252732 -0.169696 -0.616691
v 0.252732 0.020037 -0.464445
v 0.242628 -0.169696 -0.464445
v 0.242628 0.020037 -0.464445
v 0.252732 -0.169696 -0.464445
v 0.242628 0.020037 -0.161471
v 0.252732 -0.169696 -0.161471
v 0.252732 0.020037 -0.161471
v 0.242628 -0.169696 -0.161471
v 0.242628 0.000551 -0.197765
v 0.242628 0.000551 -0.428151
v 0.252732 0.000551 -0.428151
v 0.252732 0.000551 -0.197765
v 0.242628 -0.169696 -0.428151
v 0.242628 -0.169696 -0.197765
v 0.252732 -0.169696 -0.197765
v 0.252732 -0.169696 -0.428151
v 0.242628 0.213565 -0.014060
v 0.252732 0.213565 -0.014060
v 0.242628 0.213565 -0.616691
v 0.252732 0.213565 -0.616691
v 0.242628 0.023832 -0.014060
v 0.252732 0.023832 -0.014060
v 0.242628 0.023832 -0.616691
v 0.252732 0.023832 -0.616691
v 0.252732 0.213565 -0.464445
v 0.242628 0.023832 -0.464445
v 0.242628 0.213565 -0.464445
v 0.252732 0.023832 -0.464445
v 0.242628 0.213565 -0.161471
v 0.252732 0.023832 -0.161471
v 0.252732 0.213565 -0.161471
v 0.242628 0.023832 -0.161471
v 0.242628 0.194079 -0.197765
v 0.242628 0.194079 -0.428151
v 0.252732 0.194079 -0.428151
v 0.252732 0.194079 -0.197765
v 0.242628 0.023832 -0.428151
v 0.242628 0.023832 -0.197765
v 0.252732 0.023832 -0.197765
v 0.252732 0.023832 -0.428151
v 0.242628 0.407093 -0.014060
v 0.252732 0.407093 -0.014060
v 0.242628 0.407093 -0.616691
v 0.252732 0.407093 -0.616691
v 0.242628 0.217360 -0.014060
v 0.252732 0.217360 -0.014060
v 0.242628 0.217360 -0.616691
v 0.252732 0.217360 -0.616691
v 0.252732 0.407093 -0.464445
v 0.242628 0.217360 -0.464445
v 0.242628 0.407093 -0.464445
v 0.252732 0.217360 -0.464445
v 0.242628 0.407093 -0.161471
v 0.252732 0.217360 -0.161471
v 0.252732 0.407093 -0.161471
v 0.242628 0.217360 -0.161471
v 0.242628 0.387607 -0.197765
v 0.242628 0.387607 -0.428151
v 0.252732 0.387607 -0.428151
v 0.252732 0.387607 -0.197765
v 0.242628 0.217360 -0.428151
v 0.242628 0.217360 -0.197765
v 0.252732 0.217360 -0.197765
v 0.252732 0.217360 -0.428151
vn -0.0000 -1.0000 -0.0000
vn -0.0000 -0.0000 1.0000
vn -0.0000 1.0000 -0.0000
vn -0.0000 -0.0000 -1.0000
vn 1.0000 -0.0000 -0.0000
vn -1.0000 -0.0000 -0.0000
vn -0.0000 -0.8811 0.4730
vn -0.0000 -0.8811 -0.4730
vt 0.375000 1.000000
vt 0.125000 0.750000
vt 0.375000 0.000000
vt 0.625000 1.000000
vt 0.875000 0.750000
vt 0.625000 0.000000
vt 0.375000 0.250000
vt 0.125000 0.500000
vt 0.625000 0.250000
vt 0.875000 0.500000
vt 0.375000 0.750000
vt 0.625000 0.750000
vt 0.375000 0.500000
vt 0.625000 0.500000
vt 0.875000 0.562500
vt 0.625000 0.187500
vt 0.375000 0.562500
vt 0.125000 0.562500
vt 0.375000 0.187500
vt 0.625000 0.562500
vt 0.125000 0.687500
vt 0.375000 0.062500
vt 0.625000 0.687500
vt 0.625000 0.062500
vt 0.875000 0.687500
vt 0.375000 0.687500
vt 0.125000 0.672526
vt 0.375000 0.077474
vt 0.125000 0.577474
vt 0.375000 0.172526
vt 0.875000 0.577474
vt 0.625000 0.172526
vt 0.875000 0.672526
vt 0.625000 0.077474
vt 0.375000 0.577474
vt 0.375000 0.672526
vt 0.625000 0.672526
vt 0.625000 0.577474
vt 0.375000 1.000000
vt 0.125000 0.750000
vt 0.375000 0.000000
vt 0.625000 1.000000
vt 0.875000 0.750000
vt 0.625000 0.000000
vt 0.375000 0.250000
vt 0.125000 0.500000
vt 0.625000 0.250000
vt 0.875000 0.500000
vt 0.375000 0.750000
vt 0.625000 0.750000
vt 0.375000 0.500000
vt 0.625000 0.500000
vt 0.875000 0.562500
vt 0.625000 0.187500
vt 0.375000 0.562500
vt 0.125000 0.562500
vt 0.375000 0.187500
vt 0.625000 0.562500
vt 0.125000 0.687500
vt 0.375000 0.062500
vt 0.625000 0.687500
vt 0.625000 0.062500
vt 0.875000 0.687500
vt 0.375000 0.687500
vt 0.125000 0.672526
vt 0.375000 0.077474
vt 0.125000 0.577474
vt 0.375000 0.172526
vt 0.875000 0.577474
vt 0.625000 0.172526
vt 0.875000 0.672526
vt 0.625000 0.077474
vt 0.375000 0.577474
vt 0.375000 0.672526
vt 0.625000 0.672526
vt 0.625000 0.577474
vt 0.375000 1.000000
vt 0.125000 0.750000
vt 0.375000 0.000000
vt 0.625000 1.000000
vt 0.875000 0.750000
vt 0.625000 0.000000
vt 0.375000 0.250000
vt 0.125000 0.500000
vt 0.625000 0.250000
vt 0.875000 0.500000
vt 0.375000 0.750000
vt 0.625000 0.750000
vt 0.375000 0.500000
vt 0.625000 0.500000
vt 0.875000 0.562500
vt 0.625000 0.187500
vt 0.375000 0.562500
vt 0.125000 0.562500
vt 0.375000 0.187500
vt 0.625000 0.562500
vt 0.125000 0.687500
vt 0.375000 0.062500
vt 0.625000 0.687500
vt 0.625000 0.062500
vt 0.875000 0.687500
vt 0.375000 0.687500
vt 0.125000 0.672526
vt 0.375000 0.077474
vt 0.125000 0.577474
vt 0.375000 0.172526
vt 0.875000 0.577474
vt 0.625000 0.172526
vt 0.875000 0.672526
vt 0.625000 0.077474
vt 0.375000 0.577474
vt 0.375000 0.672526
vt 0.625000 0.672526
vt 0.625000 0.577474
vt 0.375000 1.000000
vt 0.125000 0.750000
vt 0.375000 0.000000
vt 0.625000 1.000000
vt 0.875000 0.750000
vt 0.625000 0.000000
vt 0.375000 0.250000
vt 0.125000 0.500000
vt 0.625000 0.250000
vt 0.875000 0.500000
vt 0.375000 0.750000
vt 0.625000 0.750000
vt 0.375000 0.500000
vt 0.625000 0.500000
vt 0.875000 0.562500
vt 0.625000 0.187500
vt 0.375000 0.562500
vt 0.125000 0.562500
vt 0.375000 0.187500
vt 0.625000 0.562500
vt 0.125000 0.687500
vt 0.375000 0.062500
vt 0.625000 0.687500
vt 0.625000 0.062500
vt 0.875000 0.687500
vt 0.375000 0.687500
vt 0.125000 0.672526
vt 0.375000 0.077474
vt 0.125000 0.577474
vt 0.375000 0.172526
vt 0.875000 0.577474
vt 0.625000 0.172526
vt 0.875000 0.672526
vt 0.625000 0.077474
vt 0.375000 0.577474
vt 0.375000 0.672526
vt 0.625000 0.672526
vt 0.625000 0.577474
s 0
usemtl Material
f 91/171/58 83/159/58 84/161/58 89/168/58
f 83/159/59 87/165/59 88/166/59 84/161/59
f 96/178/60 85/163/60 86/164/60 94/175/60
f 85/163/61 81/153/61 82/156/61 86/164/61
f 93/173/62 81/154/62 85/163/62 96/178/62
f 94/175/63 86/164/63 82/157/63 95/177/63
f 102/188/60 96/178/60 94/175/60 103/189/60
f 97/179/62 93/173/62 96/178/62 102/188/62
f 91/170/62 98/181/62 101/187/62 90/169/62
f 87/165/60 90/169/60 92/172/60 88/166/60
f 83/160/62 91/170/62 90/169/62 87/165/62
f 88/166/63 92/172/63 89/167/63 84/162/63
f 93/174/64 97/180/64 100/186/64 95/176/64
f 81/155/58 93/174/58 95/176/58 82/158/58
f 92/172/63 104/190/63 99/183/63 89/167/63
f 103/189/63 94/175/63 95/177/63 100/185/63
f 90/169/60 101/187/60 104/190/60 92/172/60
f 100/185/63 99/183/63 104/190/63 103/189/63
f 102/188/62 101/187/62 98/181/62 97/179/62
f 103/189/60 104/190/60 101/187/60 102/188/60
f 99/184/58 100/186/58 97/180/58 98/182/58
f 98/182/65 91/171/65 89/168/65 99/184/65
f 115/209/58 107/197/58 108/199/58 113/206/58
f 107/197/59 111/203/59 112/204/59 108/199/59
f 120/216/60 109/201/60 110/202/60 118/213/60
f 109/201/61 105/191/61 106/194/61 110/202/61
f 117/211/62 105/192/62 109/201/62 120/216/62
f 118/213/63 110/202/63 106/195/63 119/215/63
f 126/226/60 120/216/60 118/213/60 127/227/60
f 121/217/62 117/211/62 120/216/62 126/226/62
f 115/208/62 122/219/62 125/225/62 114/207/62
f 111/203/60 114/207/60 116/210/60 112/204/60
f 107/198/62 115/208/62 114/207/62 111/203/62
f 112/204/63 116/210/63 113/205/63 108/200/63
f 117/212/64 121/218/64 124/224/64 119/214/64
f 105/193/58 117/212/58 119/214/58 106/196/58
f 116/210/63 128/228/63 123/221/63 113/205/63
f 127/227/63 118/213/63 119/215/63 124/223/63
f 114/207/60 125/225/60 128/228/60 116/210/60
f 124/223/63 123/221/63 128/228/63 127/227/63
f 126/226/62 125/225/62 122/219/62 121/217/62
f 127/227/60 128/228/60 125/225/60 126/226/60
f 123/222/58 124/224/58 121/218/58 122/220/58
f 122/220/65 115/209/65 113/206/65 123/222/65
f 139/247/58 131/235/58 132/237/58 137/244/58
f 131/235/59 135/241/59 136/242/59 132/237/59
f 144/254/60 133/239/60 134/240/60 142/251/60
f 133/239/61 129/229/61 130/232/61 134/240/61
f 141/249/62 129/230/62 133/239/62 144/254/62
f 142/251/63 134/240/63 130/233/63 143/253/63
f 150/264/60 144/254/60 142/251/60 151/265/60
f 145/255/62 141/249/62 144/254/62 150/264/62
f 139/246/62 146/257/62 149/263/62 138/245/62
f 135/241/60 138/245/60 140/248/60 136/242/60
f 131/236/62 139/246/62 138/245/62 135/241/62
f 136/242/63 140/248/63 137/243/63 132/238/63
f 141/250/64 145/256/64 148/262/64 143/252/64
f 129/231/58 141/250/58 143/252/58 130/234/58
f 140/248/63 152/266/63 147/259/63 137/243/63
f 151/265/63 142/251/63 143/253/63 148/261/63
f 138/245/60 149/263/60 152/266/60 140/248/60
f 148/261/63 147/259/63 152/266/63 151/265/63
f 150/264/62 149/263/62 146/257/62 145/255/62
f 151/265/60 152/266/60 149/263/60 150/264/60
f 147/260/58 148/262/58 145/256/58 146/258/58
f 146/258/65 139/247/65 137/244/65 147/260/65
f 163/285/58 155/273/58 156/275/58 161/282/58
f 155/273/59 159/279/59 160/280/59 156/275/59
f 168/292/60 157/277/60 158/278/60 166/289/60
f 157/277/61 153/267/61 154/270/61 158/278/61
f 165/287/62 153/268/62 157/277/62 168/292/62
f 166/289/63 158/278/63 154/271/63 167/291/63
f 174/302/60 168/292/60 166/289/60 175/303/60
f 169/293/62 165/287/62 168/292/62 174/302/62
f 163/284/62 170/295/62 173/301/62 162/283/62
f 159/279/60 162/283/60 164/286/60 160/280/60
f 155/274/62 163/284/62 162/283/62 159/279/62
f 160/280/63 164/286/63 161/281/63 156/276/63
f 165/288/64 169/294/64 172/300/64 167/290/64
f 153/269/58 165/288/58 167/290/58 154/272/58
f 164/286/63 176/304/63 171/297/63 161/281/63
f 175/303/63 166/289/63 167/291/63 172/299/63
f 162/283/60 173/301/60 176/304/60 164/286/60
f 172/299/63 171/297/63 176/304/63 175/303/63
f 174/302/62 173/301/62 170/295/62 169/293/62
f 175/303/60 176/304/60 173/301/60 174/302/60
f 171/298/58 172/300/58 169/294/58 170/296/58
f 170/296/65 163/285/65 161/282/65 171/298/65
