# Blender v3.2.1 OBJ File: ''
# www.blender.org
mtllib walls.mtl
o Cube
v -2.709633 -0.000940 2.709633
v -2.709633 2.749060 2.709633
v 2.647307 -0.000940 2.709633
v 2.647307 2.749060 2.709633
v -2.709633 -0.000940 -2.709633
v -2.709633 2.749060 -2.709633
v 2.647307 -0.000940 -2.709633
v 2.647307 2.749060 -2.709633
v 3.403874 -0.000940 6.105845
v 2.809190 2.749060 6.105845
v 5.207918 -0.000940 6.105845
v 5.207918 2.749060 6.105845
v 5.207918 -0.000940 3.830985
v 2.809190 2.749060 2.881880
v 5.207918 2.749060 2.881880
v 2.809190 -0.000940 2.881880
v 2.809190 -0.000940 -2.715774
v 2.809190 2.749060 -2.715774
v 5.207918 -0.000940 -2.715774
v 5.207918 2.749060 -2.715774
v -2.679775 -0.000940 6.105845
v -2.679775 2.749060 6.105845
v -2.679775 -0.000940 2.881880
v -2.679775 2.749060 2.881880
v 5.207918 -0.000940 0.854816
v 2.809190 2.749060 0.854816
v 2.809190 -0.000940 0.854816
v 5.207918 2.749060 0.854817
v 5.207918 -0.000940 1.854817
v 2.809190 2.749060 1.854817
v 2.809190 -0.000940 1.854817
v 5.207918 2.749060 1.854817
v -2.709633 -0.000940 0.854817
v 2.647307 2.749060 0.854817
v -2.709633 2.749060 0.854817
v 2.647307 -0.000940 0.854817
v -2.709633 -0.000940 1.854817
v -2.709633 2.749060 1.854817
v 2.647307 -0.000940 1.854817
v 2.647307 2.749060 1.854817
v -2.709633 2.109547 2.709633
v 2.647307 2.109547 2.709633
v -2.709633 2.109547 -2.709633
v 2.647307 2.109547 -2.709633
v -2.709633 2.109547 0.854817
v 2.647307 2.109547 0.854817
v 2.647307 2.109547 1.854817
v -2.709633 2.109547 1.854817
v 3.403874 2.109547 6.105845
v 5.207918 2.109547 6.105845
v 5.207918 2.109547 3.830986
v 2.809190 2.109547 2.881880
v 2.809190 2.109547 -2.715774
v 5.207918 2.109547 -2.715774
v -2.679775 2.109547 6.105845
v -2.679775 2.109547 2.881880
v 2.809190 2.109547 0.854816
v 5.207918 2.109547 0.854817
v 5.207918 2.109547 1.854817
v 2.809190 2.109547 1.854817
v 5.404143 -0.000942 2.709633
v 5.404143 2.749058 2.709633
v 11.195539 -0.000942 2.709633
v 11.195539 2.749058 2.709633
v 5.404143 -0.000942 -2.709633
v 5.404143 2.749058 -2.709633
v 11.195539 -0.000942 -2.709633
v 11.195539 2.749058 -2.709633
v 5.404143 -0.000942 0.854817
v 11.195539 2.749058 0.854817
v 5.404143 2.749058 0.854817
v 11.195539 -0.000942 0.854817
v 5.404143 -0.000942 1.854817
v 5.404143 2.749058 1.854817
v 11.195539 -0.000942 1.854817
v 11.195539 2.749058 1.854817
v 5.404143 2.109547 2.709633
v 11.195539 2.109547 2.709633
v 5.404143 2.109547 -2.709633
v 11.195539 2.109547 -2.709633
v 5.404143 2.109547 0.854817
v 11.195539 2.109547 0.854817
v 11.195539 2.109547 1.854817
v 5.404143 2.109547 1.854817
v -2.706568 -0.000942 10.119123
v -2.706568 2.749058 10.119123
v 3.403874 -0.000942 10.119123
v 3.403874 2.749058 10.119123
v -2.706568 -0.000942 6.286558
v -2.706568 2.749058 6.286558
v 3.403874 -0.000942 6.286558
v 3.403874 2.749058 6.286558
v 2.405951 -0.000942 10.119123
v 2.405951 2.749058 10.119123
v 2.405951 -0.000942 6.286558
v 2.405951 2.749058 6.286558
v -2.706568 2.109547 10.119123
v 3.403874 2.109547 10.119123
v -2.706568 2.109547 6.286558
v 3.403874 2.109547 6.286558
v 2.405951 2.109547 6.286558
v 2.405951 2.109547 10.119123
v 2.108609 2.749060 2.881880
v 2.108609 -0.000940 2.881880
v 2.108609 2.749060 6.105845
v 2.405951 -0.000940 6.105845
v 2.405951 2.109547 6.105845
v 2.108609 2.109547 2.881880
v 5.404143 -0.000942 10.177047
v 5.404143 2.749058 10.177047
v 11.195539 -0.000942 10.177047
v 11.195539 2.749058 10.177047
v 5.404143 -0.000942 2.969308
v 5.404143 2.749058 2.969308
v 11.195539 -0.000942 2.969308
v 11.195539 2.749058 2.969308
v 5.404143 -0.000942 4.830986
v 11.195539 2.749058 4.830986
v 5.404143 2.749058 4.830986
v 11.195539 -0.000942 4.830986
v 11.195539 2.749058 3.830986
v 5.404143 -0.000942 3.830986
v 5.404143 2.749058 3.830986
v 11.195539 -0.000942 3.830986
v 5.404143 2.109547 10.177047
v 11.195539 2.109547 10.177047
v 5.404143 2.109547 2.969308
v 11.195539 2.109547 2.969308
v 5.404143 2.109547 4.830986
v 11.195539 2.109547 4.830986
v 5.404143 2.109547 3.830986
v 11.195539 2.109547 3.830986
v 5.207918 2.749060 4.299096
v 3.070606 -0.000940 4.299095
v 2.809190 2.749060 4.299095
v 5.207918 -0.000940 4.830986
v -2.679775 -0.000940 4.299095
v -2.679775 2.749060 4.299095
v -2.679775 2.109547 4.299095
v 5.207918 2.109547 4.830986
v 2.239316 -0.000940 4.299095
v 2.108609 2.749060 4.299095
vt 0.875000 0.750000
vt 0.625000 0.750000
vt 0.625000 0.750000
vt 0.875000 0.750000
vt 0.566862 0.750000
vt 0.566862 1.000000
vt 0.625000 1.000000
vt 0.375000 0.750000
vt 0.125000 0.750000
vt 0.125000 0.750000
vt 0.375000 0.750000
vt 0.566862 0.750000
vt 0.566862 0.750000
vt 0.375000 0.750000
vt 0.375000 0.750000
vt 0.625000 0.750000
vt 0.625000 1.000000
vt 0.566862 1.000000
vt 0.566862 0.000000
vt 0.566862 0.000000
vt 0.625000 0.000000
vt 0.625000 0.000000
vt 0.566862 0.000000
vt 0.625000 0.000000
vt 0.625000 0.000000
vt 0.566862 0.000000
vt 0.875000 0.750000
vt 0.625000 0.750000
vt 0.625000 0.750000
vt 0.875000 0.750000
vt 0.566862 0.750000
vt 0.566862 0.972915
vt 0.625000 1.000000
vt 0.375000 0.750000
vt 0.136906 0.750000
vt 0.152085 0.750000
vt 0.375000 0.750000
vt 0.566862 0.750000
vt 0.566862 0.750000
vt 0.375000 0.750000
vt 0.375000 0.750000
vt 0.125000 0.750000
vt 0.125000 0.750000
vt 0.375000 0.750000
vt 0.875000 0.750000
vt 0.625000 0.750000
vt 0.625000 0.750000
vt 0.875000 0.750000
vt 0.625000 0.750000
vt 0.625000 1.000000
vt 0.566862 1.000000
vt 0.566862 0.000000
vt 0.625000 0.000000
vt 0.375000 0.750000
vt 0.125000 0.750000
vt 0.125000 0.750000
vt 0.566862 0.000000
vt 0.566862 0.000000
vt 0.625000 0.000000
vt 0.625000 0.000000
vt 0.875000 0.750000
vt 0.875000 0.750000
vt 0.875000 0.750000
vt 0.875000 0.750000
vt 0.130953 0.750000
vt 0.125000 0.750000
vt 0.125000 0.750000
vt 0.125000 0.750000
vt 0.566862 0.986457
vt 0.375000 0.986457
vt 0.375000 1.000000
vt 0.566862 1.000000
vt 0.566862 0.000000
vt 0.625000 0.000000
vt 0.125000 0.750000
vt 0.125000 0.750000
vt 0.875000 0.750000
vt 0.625000 0.750000
vt 0.875000 0.750000
vt 0.566862 0.750000
vt 0.566863 0.000000
vt 0.375000 0.000000
vt 0.566862 0.750000
vt 0.566862 0.000000
vt 0.625000 0.000000
vt 0.566862 0.000000
vt 0.625000 0.000000
vt 0.125000 0.750000
vt 0.125000 0.750000
vt 0.875000 0.750000
vt 0.625000 0.750000
vt 0.875000 0.750000
vt 0.566862 0.750000
vt 0.566862 0.000000
vt 0.625000 0.000000
vt 0.375000 0.000000
vt 0.375000 0.000000
vt 0.375000 0.000000
vt 0.375000 0.000000
vt 0.375000 1.000000
vt 0.375000 1.000000
vt 0.375000 0.000000
vt 0.375000 0.000000
vt 0.625000 1.000000
vt 0.625000 1.000000
vt 0.375000 0.000000
vt 0.375000 0.000000
vt 0.375000 0.000000
vt 0.375000 0.000000
vt 0.375000 1.000000
vt 0.566862 0.750000
vt 0.375000 0.972915
vt 0.375000 0.000000
vt 0.875000 0.750000
vt 0.625000 0.750000
vt 0.625000 0.750000
vt 0.875000 0.750000
vt 0.566863 0.750000
vt 0.566863 1.000000
vt 0.625000 1.000000
vt 0.375000 0.750000
vt 0.125000 0.750000
vt 0.125000 0.750000
vt 0.375000 0.750000
vt 0.566863 0.750000
vt 0.566863 0.750000
vt 0.375000 0.750000
vt 0.375000 0.750000
vt 0.625000 0.750000
vt 0.625000 1.000000
vt 0.566863 1.000000
vt 0.566863 0.000000
vt 0.566863 0.000000
vt 0.625000 0.000000
vt 0.625000 0.000000
vt 0.625000 0.000000
vt 0.566863 0.750000
vt 0.125000 0.750000
vt 0.125000 0.750000
vt 0.875000 0.750000
vt 0.625000 0.750000
vt 0.875000 0.750000
vt 0.566863 0.000000
vt 0.625000 0.000000
vt 0.375000 0.000000
vt 0.375000 0.000000
vt 0.375000 0.000000
vt 0.375000 1.000000
vt 0.375000 1.000000
vt 0.681452 0.750000
vt 0.625000 0.750000
vt 0.625000 0.750000
vt 0.681452 0.750000
vt 0.566863 0.806452
vt 0.566863 1.000000
vt 0.625000 1.000000
vt 0.625000 0.806452
vt 0.318548 0.750000
vt 0.125000 0.750000
vt 0.125000 0.750000
vt 0.318548 0.750000
vt 0.566863 0.750000
vt 0.566863 0.750000
vt 0.375000 0.750000
vt 0.375000 0.750000
vt 0.566863 0.806452
vt 0.625000 0.806452
vt 0.625000 1.000000
vt 0.566863 1.000000
vt 0.566863 0.000000
vt 0.566863 0.000000
vt 0.625000 0.000000
vt 0.625000 0.000000
vt 0.875000 0.750000
vt 0.875000 0.750000
vt 0.375000 0.806452
vt 0.375000 0.000000
vt 0.375000 0.000000
vt 0.375000 0.806452
vt 0.375000 1.000000
vt 0.375000 1.000000
vt 0.875000 0.750000
vt 0.625000 0.750000
vt 0.625000 0.750000
vt 0.875000 0.750000
vt 0.566863 0.750000
vt 0.566863 1.000000
vt 0.625000 1.000000
vt 0.375000 0.750000
vt 0.125000 0.750000
vt 0.375000 0.750000
vt 0.566863 0.750000
vt 0.566863 0.750000
vt 0.375000 0.750000
vt 0.375000 0.750000
vt 0.625000 0.750000
vt 0.625000 1.000000
vt 0.566863 1.000000
vt 0.566863 0.000000
vt 0.566863 0.000000
vt 0.625000 0.000000
vt 0.625000 0.000000
vt 0.566863 0.000000
vt 0.566863 0.000000
vt 0.625000 0.000000
vt 0.625000 0.000000
vt 0.566863 0.750000
vt 0.875000 0.750000
vt 0.625000 0.750000
vt 0.875000 0.750000
vt 0.125000 0.750000
vt 0.375000 0.000000
vt 0.375000 0.000000
vt 0.375000 0.000000
vt 0.375000 0.000000
vt 0.375000 1.000000
vt 0.375000 1.000000
vt 0.875000 0.750000
vt 0.138543 0.750000
vt 0.375000 0.000000
vt 0.566862 0.000000
vt 0.875000 0.750000
vt 0.625000 0.000000
vn 0.0000 -1.0000 0.0000
vn 0.0000 0.0000 -1.0000
vn 0.0000 1.0000 0.0000
vn -1.0000 0.0000 0.0000
vn 0.0000 0.0000 1.0000
vn 1.0000 0.0000 0.0000
usemtl None
s off
f 38/1/1 40/2/1 4/3/1 2/4/1
f 42/5/2 41/6/2 2/7/2 4/3/2
f 39/8/3 37/9/3 1/10/3 3/11/3
f 46/12/4 44/13/4 7/14/4 36/15/4
f 44/13/5 8/16/5 6/17/5 43/18/5
f 45/19/6 43/20/6 6/21/6 35/22/6
f 108/23/5 103/24/5 24/25/5 56/26/5
f 135/27/1 133/28/1 12/29/1 10/30/1
f 50/31/2 49/32/2 10/33/2 12/29/2
f 136/34/3 134/35/3 9/36/3 11/37/3
f 58/38/4 54/39/4 19/40/4 25/41/4
f 117/42/3 122/43/3 13/44/3 136/34/3
f 30/45/1 32/46/1 15/47/1 14/48/1
f 54/39/5 20/49/5 18/50/5 53/51/5
f 139/52/6 56/26/6 24/25/6 138/53/6
f 29/54/3 31/55/3 16/56/3 13/44/3
f 57/57/6 53/58/6 18/59/6 26/60/6
f 142/61/1 105/62/1 22/63/1 138/64/1
f 141/65/3 104/66/3 23/67/3 137/68/3
f 107/69/2 106/70/2 21/71/2 55/72/2
f 60/73/6 57/57/6 26/60/6 30/74/6
f 19/40/3 17/75/3 27/76/3 25/41/3
f 18/77/1 20/49/1 28/78/1 26/79/1
f 59/80/2 84/81/2 73/82/2 29/54/2
f 51/83/4 59/80/4 29/54/4 13/44/4
f 52/84/6 60/73/6 30/74/6 14/85/6
f 25/41/3 27/76/3 31/55/3 29/54/3
f 26/79/1 28/78/1 32/46/1 30/45/1
f 48/86/6 45/19/6 35/22/6 38/87/6
f 7/14/3 5/88/3 33/89/3 36/15/3
f 6/90/1 8/16/1 34/91/1 35/92/1
f 42/5/4 47/93/4 39/8/4 3/11/4
f 41/94/6 48/86/6 38/87/6 2/95/6
f 36/15/3 33/89/3 37/9/3 39/8/3
f 35/92/1 34/91/1 40/2/1 38/1/1
f 1/96/6 37/97/6 48/86/6 41/94/6
f 4/3/4 40/2/4 47/93/4 42/5/4
f 40/2/4 34/91/4 46/12/4 47/93/4
f 37/97/6 33/98/6 45/19/6 48/86/6
f 33/98/6 5/99/6 43/20/6 45/19/6
f 7/14/5 44/13/5 43/18/5 5/100/5
f 34/91/4 8/16/4 44/13/4 46/12/4
f 3/11/2 1/101/2 41/6/2 42/5/2
f 16/102/6 31/103/6 60/73/6 52/84/6
f 15/47/4 32/46/4 59/80/4 51/83/4
f 32/46/4 28/78/4 58/38/4 59/80/4
f 105/104/2 107/69/2 55/72/2 22/105/2
f 27/106/6 17/107/6 53/58/6 57/57/6
f 137/108/6 23/109/6 56/26/6 139/52/6
f 19/40/5 54/39/5 53/51/5 17/110/5
f 133/28/4 15/47/4 51/83/4 140/111/4
f 28/78/4 20/49/4 54/39/4 58/38/4
f 11/37/2 9/112/2 49/32/2 50/31/2
f 104/113/5 108/23/5 56/26/5 23/109/5
f 46/12/1 57/57/1 60/73/1 47/93/1
f 57/57/5 46/12/5 36/15/5 27/106/5
f 60/73/2 31/103/2 39/8/2 47/93/2
f 31/103/3 27/106/3 36/15/3 39/8/3
f 74/114/1 76/115/1 64/116/1 62/117/1
f 78/118/2 77/119/2 62/120/2 64/116/2
f 75/121/3 73/122/3 61/123/3 63/124/3
f 82/125/4 80/126/4 67/127/4 72/128/4
f 80/126/5 68/129/5 66/130/5 79/131/5
f 81/132/6 79/133/6 66/134/6 71/135/6
f 84/81/6 81/132/6 71/135/6 74/136/6
f 83/137/4 82/125/4 72/128/4 75/121/4
f 67/127/3 65/138/3 69/139/3 72/128/3
f 66/140/1 68/129/1 70/141/1 71/142/1
f 78/118/4 83/137/4 75/121/4 63/124/4
f 77/143/6 84/81/6 74/136/6 62/144/6
f 72/128/3 69/139/3 73/122/3 75/121/3
f 71/142/1 70/141/1 76/115/1 74/114/1
f 61/145/6 73/82/6 84/81/6 77/143/6
f 64/116/4 76/115/4 83/137/4 78/118/4
f 76/115/4 70/141/4 82/125/4 83/137/4
f 59/80/1 58/38/1 81/132/1 84/81/1
f 69/146/6 65/147/6 79/133/6 81/132/6
f 67/127/5 80/126/5 79/131/5 65/148/5
f 70/141/4 68/129/4 80/126/4 82/125/4
f 63/124/2 61/149/2 77/119/2 78/118/2
f 58/38/5 25/41/5 69/146/5 81/132/5
f 29/54/3 73/82/3 69/139/3 25/41/3
f 96/150/1 92/151/1 88/152/1 94/153/1
f 102/154/2 97/155/2 86/156/2 94/157/2
f 95/158/3 89/159/3 85/160/3 93/161/3
f 98/162/4 100/163/4 91/164/4 87/165/4
f 101/166/5 96/167/5 90/168/5 99/169/5
f 97/170/6 99/171/6 90/172/6 86/173/6
f 100/163/5 92/151/5 96/167/5 101/166/5
f 91/164/3 95/158/3 93/161/3 87/165/3
f 98/162/2 102/154/2 94/157/2 88/152/2
f 90/174/1 96/150/1 94/153/1 86/175/1
f 87/165/2 93/176/2 102/154/2 98/162/2
f 16/102/5 52/84/5 108/23/5 104/113/5
f 85/177/6 89/178/6 99/171/6 97/170/6
f 95/179/5 101/166/5 99/169/5 89/180/5
f 88/152/4 92/151/4 100/163/4 98/162/4
f 93/176/2 85/181/2 97/155/2 102/154/2
f 10/33/2 49/32/2 107/69/2 105/104/2
f 107/69/1 49/32/1 100/163/1 101/166/1
f 134/35/3 16/56/3 104/66/3 141/65/3
f 135/27/1 10/30/1 105/62/1 142/61/1
f 52/84/5 14/85/5 103/24/5 108/23/5
f 101/166/6 95/179/6 106/70/6 107/69/6
f 9/36/3 106/70/3 95/158/3 91/164/3
f 9/36/4 91/164/4 100/163/4 49/32/4
f 119/182/1 118/183/1 112/184/1 110/185/1
f 126/186/2 125/187/2 110/188/2 112/184/2
f 120/189/3 117/42/3 109/190/3 111/191/3
f 132/192/4 128/193/4 115/194/4 124/195/4
f 128/193/5 116/196/5 114/197/5 127/198/5
f 131/199/6 127/200/6 114/201/6 123/202/6
f 125/203/6 129/204/6 119/205/6 110/206/6
f 126/186/4 130/207/4 120/189/4 111/191/4
f 124/195/3 122/43/3 117/42/3 120/189/3
f 123/208/1 121/209/1 118/183/1 119/182/1
f 114/210/1 116/196/1 121/209/1 123/208/1
f 115/194/3 113/211/3 122/43/3 124/195/3
f 129/204/6 131/199/6 123/202/6 119/205/6
f 130/207/4 132/192/4 124/195/4 120/189/4
f 118/183/4 121/209/4 132/192/4 130/207/4
f 112/184/4 118/183/4 130/207/4 126/186/4
f 109/212/6 117/213/6 129/204/6 125/203/6
f 122/214/6 113/215/6 127/200/6 131/199/6
f 115/194/5 128/193/5 127/198/5 113/216/5
f 121/209/4 116/196/4 128/193/4 132/192/4
f 111/191/2 109/217/2 125/187/2 126/186/2
f 14/48/1 135/27/1 142/61/1 103/218/1
f 9/36/3 134/35/3 141/65/3 106/219/3
f 12/29/4 133/28/4 140/111/4 50/31/4
f 21/220/6 137/108/6 139/52/6 55/221/6
f 103/218/1 142/61/1 138/64/1 24/222/1
f 55/221/6 139/52/6 138/53/6 22/223/6
f 50/31/4 140/111/4 136/34/4 11/37/4
f 13/44/3 16/56/3 134/35/3 136/34/3
f 14/48/1 15/47/1 133/28/1 135/27/1
f 117/42/2 136/34/2 140/111/2 129/204/2
f 51/83/5 13/44/5 122/214/5 131/199/5
f 140/111/1 51/83/1 131/199/1 129/204/1
f 21/71/3 106/70/3 141/65/3 137/68/3
o DoorFrame_DoorFrane.002
v 2.753542 0.009548 1.854816
v 2.673542 0.009548 1.854816
v 2.673542 0.009548 1.774817
v 2.753542 2.109547 1.854816
v 2.673542 2.109547 1.854816
v 2.673542 2.109547 0.854816
v 2.753541 2.109547 0.854816
v 2.753542 2.029547 0.934816
v 2.673542 2.029547 1.774817
v 2.753542 0.009548 0.934816
v 2.753541 0.009548 0.854816
v 2.673542 0.009548 0.854816
v 2.713542 2.029547 0.934816
v 2.713542 2.029547 1.774817
v 2.713542 0.009548 1.774817
v 2.713542 2.029547 1.754816
v 2.713542 0.009548 1.754816
v 2.673542 2.029547 1.754817
v 2.673542 0.009548 1.754817
v 2.713542 0.009548 0.934816
v 2.753542 2.029547 1.774817
v 2.753542 0.009548 1.774817
v 2.673542 2.029547 0.934816
v 2.673542 0.009548 0.934816
v 2.673542 0.009548 0.954816
v 2.713542 0.009548 0.954816
v 2.673542 2.029547 0.954816
v 2.713542 2.009547 0.954816
v 2.713542 2.029547 0.954816
v 2.673542 2.009547 1.754817
v 2.713542 2.009547 1.754816
v 2.673542 2.009547 0.954816
vn 0.0000 0.0000 1.0000
vn 0.0000 1.0000 0.0000
vn 0.0000 0.0000 -1.0000
vn -1.0000 0.0000 0.0000
vn 0.0000 -1.0000 0.0000
vn 1.0000 0.0000 0.0000
usemtl None
s off
f 146//7 147//7 144//7 143//7
f 150//7 155//7 162//7 152//7
f 147//8 146//8 149//8 148//8
f 153//9 154//9 148//9 149//9
f 156//9 163//9 164//9 157//9
f 160//9 158//9 159//9 161//9
f 154//10 166//10 165//10 148//10
f 163//11 156//11 155//11 150//11
f 163//12 146//12 143//12 164//12
f 152//12 153//12 149//12 150//12
f 156//12 157//12 159//12 158//12
f 147//10 151//10 145//10 144//10
f 172//11 174//11 170//11 173//11
f 150//12 149//12 146//12 163//12
f 151//10 147//10 148//10 165//10
f 157//11 145//11 161//11 159//11
f 160//10 161//10 145//10 151//10
f 171//12 168//12 162//12 155//12
f 171//7 169//7 167//7 168//7
f 168//11 167//11 166//11 162//11
f 165//10 166//10 167//10 169//10
f 172//10 160//10 169//10 174//10
f 158//12 173//12 170//12 171//12
f 151//8 165//8 169//8
o DoorFrame.001_DoorFrane.002
v 3.405951 -0.000941 6.169536
v 3.405951 -0.000941 6.249536
v 3.325951 -0.000941 6.249536
v 3.405951 2.099059 6.169536
v 3.405951 2.099059 6.249536
v 2.405951 2.099059 6.249536
v 2.405951 2.099059 6.169536
v 2.485950 2.019059 6.169536
v 3.325951 2.019059 6.249536
v 2.485950 -0.000941 6.169536
v 2.405951 -0.000941 6.169536
v 2.405951 -0.000941 6.249536
v 2.485950 2.019059 6.209536
v 3.325951 2.019059 6.209536
v 3.325951 -0.000941 6.209536
v 3.305951 2.019059 6.209536
v 3.305951 -0.000941 6.209536
v 3.305951 2.019059 6.249536
v 3.305951 -0.000941 6.249536
v 2.485950 -0.000941 6.209536
v 3.325951 2.019059 6.169536
v 3.325951 -0.000941 6.169536
v 2.485950 2.019059 6.249536
v 2.485950 -0.000941 6.249536
v 2.505950 -0.000941 6.249536
v 2.505950 -0.000941 6.209536
v 2.505950 2.019059 6.249536
v 2.505950 1.999059 6.209536
v 2.505950 2.019059 6.209536
v 3.305951 1.999059 6.249536
v 3.305951 1.999059 6.209536
v 2.505950 1.999059 6.249536
vn 1.0000 0.0000 0.0000
vn 0.0000 1.0000 0.0000
vn -1.0000 0.0000 0.0000
vn 0.0000 0.0000 1.0000
vn 0.0000 -1.0000 0.0000
vn 0.0000 0.0000 -1.0000
usemtl None
s off
f 178//13 179//13 176//13 175//13
f 182//13 187//13 194//13 184//13
f 179//14 178//14 181//14 180//14
f 185//15 186//15 180//15 181//15
f 188//15 195//15 196//15 189//15
f 192//15 190//15 191//15 193//15
f 186//16 198//16 197//16 180//16
f 195//17 188//17 187//17 182//17
f 195//18 178//18 175//18 196//18
f 184//18 185//18 181//18 182//18
f 188//18 189//18 191//18 190//18
f 179//16 183//16 177//16 176//16
f 204//17 206//17 202//17 205//17
f 182//18 181//18 178//18 195//18
f 183//16 179//16 180//16 197//16
f 189//17 177//17 193//17 191//17
f 192//16 193//16 177//16 183//16
f 203//18 200//18 194//18 187//18
f 203//13 201//13 199//13 200//13
f 200//17 199//17 198//17 194//17
f 197//16 198//16 199//16 201//16
f 204//16 192//16 201//16 206//16
f 190//18 205//18 202//18 203//18
f 183//16 197//16 201//16
o DoorFrame.002_DoorFrane.003
v 5.254264 0.009548 0.854817
v 5.334264 0.009548 0.854817
v 5.334264 0.009548 0.934817
v 5.254264 2.109547 0.854817
v 5.334264 2.109547 0.854817
v 5.334264 2.109547 1.854817
v 5.254264 2.109547 1.854817
v 5.254264 2.029547 1.774817
v 5.334264 2.029547 0.934817
v 5.254264 0.009548 1.774817
v 5.254264 0.009548 1.854817
v 5.334264 0.009548 1.854817
v 5.294264 2.029547 1.774817
v 5.294264 2.029547 0.934817
v 5.294264 0.009548 0.934817
v 5.294264 2.029547 0.954817
v 5.294264 0.009548 0.954817
v 5.334264 2.029547 0.954817
v 5.334264 0.009548 0.954817
v 5.294264 0.009548 1.774817
v 5.254264 2.029547 0.934817
v 5.254264 0.009548 0.934817
v 5.334264 2.029547 1.774817
v 5.334264 0.009548 1.774817
v 5.334264 0.009548 1.754817
v 5.294264 0.009548 1.754817
v 5.334264 2.029547 1.754817
v 5.294264 2.009547 1.754817
v 5.294264 2.029547 1.754817
v 5.334264 2.009547 0.954817
v 5.294264 2.009547 0.954817
v 5.334264 2.009547 1.754817
vn 0.0000 0.0000 -1.0000
vn 0.0000 1.0000 0.0000
vn 0.0000 0.0000 1.0000
vn 1.0000 0.0000 0.0000
vn 0.0000 -1.0000 0.0000
vn -1.0000 0.0000 0.0000
usemtl None
s off
f 210//19 211//19 208//19 207//19
f 214//19 219//19 226//19 216//19
f 211//20 210//20 213//20 212//20
f 217//21 218//21 212//21 213//21
f 220//21 227//21 228//21 221//21
f 224//21 222//21 223//21 225//21
f 218//22 230//22 229//22 212//22
f 227//23 220//23 219//23 214//23
f 227//24 210//24 207//24 228//24
f 216//24 217//24 213//24 214//24
f 220//24 221//24 223//24 222//24
f 211//22 215//22 209//22 208//22
f 236//23 238//23 234//23 237//23
f 214//24 213//24 210//24 227//24
f 215//22 211//22 212//22 229//22
f 221//23 209//23 225//23 223//23
f 224//22 225//22 209//22 215//22
f 235//24 232//24 226//24 219//24
f 235//19 233//19 231//19 232//19
f 232//23 231//23 230//23 226//23
f 229//22 230//22 231//22 233//22
f 236//22 224//22 233//22 238//22
f 222//24 237//24 234//24 235//24
f 215//20 229//20 233//20
o DoorFrame.003_DoorFrane.003
v 5.254264 0.009548 3.830986
v 5.334264 0.009548 3.830986
v 5.334264 0.009548 3.910985
v 5.254264 2.109547 3.830986
v 5.334264 2.109547 3.830986
v 5.334264 2.109547 4.830986
v 5.254264 2.109547 4.830986
v 5.254264 2.029547 4.750986
v 5.334264 2.029547 3.910985
v 5.254264 0.009548 4.750986
v 5.254264 0.009548 4.830986
v 5.334264 0.009548 4.830986
v 5.294264 2.029547 4.750986
v 5.294264 2.029547 3.910985
v 5.294264 0.009548 3.910985
v 5.294264 2.029547 3.930985
v 5.294264 0.009548 3.930985
v 5.334264 2.029547 3.930985
v 5.334264 0.009548 3.930985
v 5.294264 0.009548 4.750986
v 5.254264 2.029547 3.910985
v 5.254264 0.009548 3.910985
v 5.334264 2.029547 4.750986
v 5.334264 0.009548 4.750986
v 5.334264 0.009548 4.730986
v 5.294264 0.009548 4.730986
v 5.334264 2.029547 4.730986
v 5.294264 2.009547 4.730986
v 5.294264 2.029547 4.730986
v 5.334264 2.009547 3.930985
v 5.294264 2.009547 3.930985
v 5.334264 2.009547 4.730986
vn 0.0000 0.0000 -1.0000
vn 0.0000 1.0000 0.0000
vn 0.0000 0.0000 1.0000
vn 1.0000 0.0000 0.0000
vn 0.0000 -1.0000 0.0000
vn -1.0000 0.0000 0.0000
usemtl None
s off
f 242//25 243//25 240//25 239//25
f 246//25 251//25 258//25 248//25
f 243//26 242//26 245//26 244//26
f 249//27 250//27 244//27 245//27
f 252//27 259//27 260//27 253//27
f 256//27 254//27 255//27 257//27
f 250//28 262//28 261//28 244//28
f 259//29 252//29 251//29 246//29
f 259//30 242//30 239//30 260//30
f 248//30 249//30 245//30 246//30
f 252//30 253//30 255//30 254//30
f 243//28 247//28 241//28 240//28
f 268//29 270//29 266//29 269//29
f 246//30 245//30 242//30 259//30
f 247//28 243//28 244//28 261//28
f 253//29 241//29 257//29 255//29
f 256//28 257//28 241//28 247//28
f 267//30 264//30 258//30 251//30
f 267//25 265//25 263//25 264//25
f 264//29 263//29 262//29 258//29
f 261//28 262//28 263//28 265//28
f 268//28 256//28 265//28 270//28
f 254//30 269//30 266//30 267//30
f 247//26 261//26 265//26
