# Blender 3.3.0
# www.blender.org
mtllib Desk.mtl
o Cube
v 0.846500 0.422983 -3.143990
v 0.846500 -0.052210 -3.143990
v 0.846500 0.422983 -3.103432
v 0.846500 -0.052210 -3.103432
v 0.421520 0.422983 -3.143990
v 0.421520 -0.052210 -3.143990
v 0.421520 0.422983 -3.103432
v 0.421520 -0.052210 -3.103432
v 0.846500 0.459966 -3.103432
v 0.421520 0.459966 -3.103432
v 0.846500 0.459966 -3.143990
v 0.421520 0.459966 -3.143990
v 0.421520 0.422983 -4.113808
v 0.846500 0.422983 -4.113808
v 0.421520 0.459966 -4.113808
v 0.846500 0.459966 -4.113808
v 0.846500 0.422983 -4.087703
v 0.846500 0.459966 -4.087703
v 0.421520 0.422983 -4.087703
v 0.421520 0.459966 -4.087703
v 0.421520 -0.052210 -4.113808
v 0.846500 -0.052210 -4.113808
v 0.846500 -0.052210 -4.087703
v 0.421520 -0.052210 -4.087703
v 0.447758 0.422983 -4.087703
v 0.447758 0.422983 -3.143990
v 0.421520 0.288690 -3.143990
v 0.421520 0.288690 -4.087703
v 0.447758 0.288690 -4.087703
v 0.447758 0.288690 -3.143990
v 0.447758 0.422983 -3.812068
v 0.846500 0.422983 -3.812068
v 0.846500 0.422983 -3.834788
v 0.447758 0.422983 -3.834788
v 0.846500 -0.052210 -3.812068
v 0.846500 -0.052210 -3.834788
v 0.421520 0.422983 -3.834788
v 0.421520 0.422983 -3.812068
v 0.421520 -0.052210 -3.834788
v 0.421520 -0.052210 -3.812068
v 0.421520 0.288690 -3.834788
v 0.447758 0.288690 -3.834788
v 0.421520 -0.052210 -3.834788
v 0.421520 -0.052210 -4.087703
v 0.447758 -0.052210 -4.087703
v 0.447758 -0.052210 -3.834788
v 0.447758 -0.032725 -3.834788
v 0.447758 -0.032725 -4.087703
v 0.421520 -0.032725 -4.087703
v 0.421520 -0.032725 -3.834788
v 0.846500 -0.052210 -4.087703
v 0.846500 -0.052210 -3.834788
v 0.846500 -0.032725 -3.834788
v 0.846500 -0.032725 -4.087703
v 0.447758 0.266993 -4.087703
v 0.421520 0.266993 -4.087703
v 0.447758 0.266993 -3.834788
v 0.421520 0.266993 -3.834788
v 0.846500 0.288690 -4.087703
v 0.846500 0.288690 -3.834788
v 0.846500 0.266993 -4.087703
v 0.846500 0.266993 -3.834788
v 0.866857 0.422983 -3.143990
v 0.866857 0.422983 -3.103432
v 0.866857 0.459966 -3.143990
v 0.866857 0.459966 -3.103432
v 0.866857 0.422983 -4.113808
v 0.866857 0.459966 -4.113808
v 0.866857 0.422983 -4.087703
v 0.866857 0.459966 -4.087703
v 0.866857 0.422983 -3.834788
v 0.866857 0.422983 -3.812068
vn -1.0000 -0.0000 -0.0000
vn -0.0000 -1.0000 -0.0000
vn 1.0000 -0.0000 -0.0000
vn -0.0000 -0.0000 -1.0000
vn -0.0000 1.0000 -0.0000
vn -0.0000 -0.0000 1.0000
vt 0.625000 0.500000
vt 0.375000 0.500000
vt 0.625000 0.750000
vt 0.375000 0.750000
vt 0.625000 0.250000
vt 0.125000 0.500000
vt 0.375000 0.250000
vt 0.625000 0.000000
vt 0.625000 1.000000
vt 0.375000 0.000000
vt 0.125000 0.750000
vt 0.375000 1.000000
vt 0.625000 0.750000
vt 0.625000 0.000000
vt 0.875000 0.750000
vt 0.625000 1.000000
vt 0.625000 0.500000
vt 0.875000 0.500000
vt 0.625000 0.250000
vt 0.625000 0.250000
vt 0.625000 0.500000
vt 0.625000 0.250000
vt 0.875000 0.500000
vt 0.625000 0.500000
vt 0.625000 0.500000
vt 0.625000 0.500000
vt 0.625000 0.250000
vt 0.875000 0.500000
vt 0.625000 0.250000
vt 0.625000 0.250000
vt 0.625000 0.500000
vt 0.625000 0.500000
vt 0.625000 0.250000
vt 0.625000 0.375000
vt 0.625000 0.375000
vt 0.625000 0.250000
vt 0.625000 0.250000
vt 0.625000 0.375000
vt 0.625000 0.375000
vt 0.625000 0.375000
vt 0.625000 0.500000
vt 0.625000 0.500000
vt 0.625000 0.375000
vt 0.625000 0.500000
vt 0.625000 0.500000
vt 0.625000 0.375000
vt 0.625000 0.375000
vt 0.625000 0.375000
vt 0.625000 0.375000
vt 0.625000 0.250000
vt 0.625000 0.375000
vt 0.625000 0.250000
vt 0.625000 0.250000
vt 0.625000 0.375000
vt 0.625000 0.375000
vt 0.625000 0.375000
vt 0.625000 0.375000
vt 0.625000 0.250000
vt 0.625000 0.250000
vt 0.625000 0.375000
vt 0.625000 0.375000
vt 0.625000 0.375000
vt 0.625000 0.375000
vt 0.625000 0.375000
vt 0.625000 0.250000
vt 0.625000 0.375000
vt 0.625000 0.250000
vt 0.625000 0.375000
vt 0.625000 0.375000
vt 0.625000 0.375000
vt 0.625000 0.375000
vt 0.625000 0.500000
vt 0.625000 0.750000
vt 0.625000 0.500000
vt 0.625000 0.750000
vt 0.625000 0.500000
vt 0.625000 0.500000
vt 0.625000 0.500000
vt 0.625000 0.500000
vt 0.625000 0.500000
vt 0.625000 0.500000
s 0
usemtl Material
f 5/5/1 7/8/1 10/14/1 12/19/1
f 8/10/1 7/8/1 5/5/1 6/7/1
f 6/6/2 2/2/2 4/4/2 8/11/2
f 2/2/3 1/1/3 3/3/3 4/4/3
f 6/7/4 5/5/4 26/35/4 1/1/4 2/2/4
f 11/17/5 12/18/5 10/15/5 9/13/5
f 16/24/5 18/26/5 70/79/5 68/77/5
f 18/26/5 11/17/5 65/74/5 70/79/5
f 14/21/4 13/20/4 15/22/4 16/24/4
f 14/21/3 17/25/3 23/32/3 22/31/3
f 19/27/1 20/29/1 15/22/1 13/20/1
f 20/28/5 18/26/5 16/24/5 15/23/5
f 12/18/5 11/17/5 18/26/5 20/28/5
f 5/5/1 12/19/1 20/29/1 19/27/1
f 1/1/2 26/35/2 31/40/2 32/41/2
f 33/42/2 17/25/2 69/78/2 71/80/2
f 23/32/2 24/33/2 21/30/2 22/31/2
f 13/20/4 14/21/4 22/31/4 21/30/4
f 17/25/6 25/34/6 19/27/6 24/33/6 23/32/6
f 19/27/1 13/20/1 21/30/1 24/33/1
f 25/34/3 34/43/3 31/40/3 26/35/3 30/39/3 42/51/3 29/38/3
f 47/56/6 46/55/6 52/61/6 53/62/6
f 19/27/4 25/34/4 29/38/4 28/37/4
f 26/35/6 5/5/6 27/36/6 30/39/6
f 5/5/1 19/27/1 28/37/1 41/50/1 27/36/1
f 4/4/6 3/3/6 9/13/6 10/16/6 7/9/6 8/12/6
f 33/42/2 34/43/2 25/34/2 17/25/2
f 40/49/2 39/48/2 36/45/2 35/44/2
f 40/49/6 35/44/6 32/41/6 38/47/6
f 33/42/3 32/41/3 35/44/3 36/45/3
f 38/47/1 37/46/1 39/48/1 40/49/1
f 31/40/5 34/43/5 37/46/5 38/47/5
f 39/48/4 37/46/4 33/42/4 36/45/4
f 41/50/2 42/51/2 30/39/2 27/36/2
f 45/54/2 46/55/2 43/52/2 44/53/2
f 49/58/4 48/57/4 45/54/4 44/53/4
f 47/56/6 50/59/6 43/52/6 46/55/6
f 50/59/1 49/58/1 44/53/1 43/52/1
f 58/67/1 56/65/1 49/58/1 50/59/1
f 57/66/6 58/67/6 50/59/6 47/56/6
f 56/65/4 55/64/4 48/57/4 49/58/4
f 55/64/3 57/66/3 47/56/3 48/57/3
f 54/63/3 53/62/3 52/61/3 51/60/3
f 48/57/5 47/56/5 53/62/5 54/63/5
f 46/55/2 45/54/2 51/60/2 52/61/2
f 45/54/4 48/57/4 54/63/4 51/60/4
f 55/64/4 29/38/4 59/68/4 61/70/4
f 28/37/4 29/38/4 55/64/4 56/65/4
f 42/51/6 41/50/6 58/67/6 57/66/6
f 41/50/1 28/37/1 56/65/1 58/67/1
f 59/68/3 60/69/3 62/71/3 61/70/3
f 57/66/2 55/64/2 61/70/2 62/71/2
f 42/51/6 57/66/6 62/71/6 60/69/6
f 29/38/5 42/51/5 60/69/5 59/68/5
f 64/73/3 63/72/3 65/74/3 66/75/3
f 70/79/3 69/78/3 67/76/3 68/77/3
f 65/74/3 63/72/3 72/81/3 71/80/3 69/78/3 70/79/3
f 9/13/6 3/3/6 64/73/6 66/75/6
f 32/41/2 33/42/2 71/80/2 72/81/2
f 14/21/4 16/24/4 68/77/4 67/76/4
f 11/17/5 9/13/5 66/75/5 65/74/5
f 17/25/2 14/21/2 67/76/2 69/78/2
f 3/3/2 1/1/2 63/72/2 64/73/2
f 1/1/2 32/41/2 72/81/2 63/72/2
o Cube.001
v 0.840669 -0.032725 -3.830239
v 0.840669 0.266993 -3.830239
v 0.840669 -0.032725 -4.092250
v 0.840669 0.266993 -4.092250
v 0.857325 -0.032725 -3.830239
v 0.857325 0.266993 -3.830239
v 0.857325 -0.032725 -4.092250
v 0.857325 0.266993 -4.092250
v 0.840669 0.087284 -4.076241
v 0.840669 0.165933 -4.076241
v 0.840669 0.076868 -4.092250
v 0.840669 0.176348 -4.092250
v 0.857325 0.076868 -4.092250
v 0.857325 0.176348 -4.092250
v 0.857325 0.087284 -4.076241
v 0.857325 0.165933 -4.076241
vn -1.0000 -0.0000 -0.0000
vn -0.0000 -0.0000 -1.0000
vn 1.0000 -0.0000 -0.0000
vn -0.0000 -0.0000 1.0000
vn -0.0000 -1.0000 -0.0000
vn -0.0000 1.0000 -0.0000
vn -0.0000 0.8382 -0.5453
vn -0.0000 -0.8382 -0.5453
vt 0.375000 0.000000
vt 0.375000 1.000000
vt 0.125000 0.750000
vt 0.625000 0.000000
vt 0.625000 1.000000
vt 0.875000 0.750000
vt 0.375000 0.250000
vt 0.125000 0.500000
vt 0.625000 0.250000
vt 0.875000 0.500000
vt 0.375000 0.750000
vt 0.625000 0.750000
vt 0.375000 0.500000
vt 0.625000 0.500000
vt 0.475101 0.234725
vt 0.375000 0.349079
vt 0.224079 0.500000
vt 0.540704 0.234725
vt 0.375000 0.900921
vt 0.224079 0.500000
vt 0.466413 0.250000
vt 0.398732 0.353563
vt 0.549392 0.250000
vt 0.398732 0.896437
vt 0.466413 0.500000
vt 0.398732 0.397345
vt 0.549392 0.500000
vt 0.398732 0.852655
vt 0.475101 0.515275
vt 0.375000 0.402022
vt 0.277023 0.500000
vt 0.540704 0.515275
vt 0.375000 0.847978
vt 0.277023 0.500000
s 0
usemtl Material
f 75/88/7 73/82/7 74/85/7 76/90/7 84/104/7 82/99/7 81/96/7 83/102/7
f 84/104/8 76/90/8 80/95/8 86/108/8
f 79/94/8 75/88/8 83/102/8 85/106/8
f 86/108/9 80/95/9 78/93/9 77/92/9 79/94/9 85/106/9 87/110/9 88/113/9
f 77/92/10 78/93/10 74/86/10 73/83/10
f 75/89/11 79/94/11 77/92/11 73/84/11
f 80/95/12 76/91/12 74/87/12 78/93/12
usemtl 
f 83/103/13 81/97/13 87/111/13 85/107/13
f 88/114/14 82/100/14 84/105/14 86/109/14
f 82/101/8 88/115/8 87/112/8 81/98/8
o Cube.002
v 0.840669 0.288690 -3.830239
v 0.840669 0.422983 -3.830239
v 0.840669 0.288690 -4.092250
v 0.840669 0.422983 -4.092250
v 0.857325 0.288690 -3.830239
v 0.857325 0.422983 -3.830239
v 0.857325 0.288690 -4.092250
v 0.857325 0.422983 -4.092250
v 0.840669 0.408090 -3.922983
v 0.840669 0.422983 -3.913294
v 0.840669 0.422983 -4.011321
v 0.840669 0.408090 -4.001632
v 0.857325 0.422983 -3.913294
v 0.857325 0.408090 -3.922983
v 0.857325 0.422983 -4.011321
v 0.857325 0.408090 -4.001632
vn -1.0000 -0.0000 -0.0000
vn -0.0000 -0.0000 -1.0000
vn 1.0000 -0.0000 -0.0000
vn -0.0000 -0.0000 1.0000
vn -0.0000 -1.0000 -0.0000
vn -0.0000 1.0000 -0.0000
vn -0.0000 0.5453 0.8382
vn -0.0000 0.5453 -0.8382
vt 0.375000 0.000000
vt 0.375000 1.000000
vt 0.125000 0.750000
vt 0.625000 0.000000
vt 0.625000 1.000000
vt 0.875000 0.750000
vt 0.375000 0.250000
vt 0.125000 0.500000
vt 0.625000 0.250000
vt 0.875000 0.500000
vt 0.375000 0.750000
vt 0.625000 0.750000
vt 0.375000 0.500000
vt 0.625000 0.500000
vt 0.597276 0.088492
vt 0.375000 0.900921
vt 0.224079 0.750000
vt 0.625000 0.079248
vt 0.875000 0.670752
vt 0.397077 0.896829
vt 0.625000 0.172781
vt 0.875000 0.577219
vt 0.397077 0.353171
vt 0.597276 0.163536
vt 0.375000 0.349079
vt 0.224079 0.500000
vt 0.625000 0.670752
vt 0.397077 0.852246
vt 0.597276 0.661508
vt 0.375000 0.847978
vt 0.277022 0.750000
vt 0.625000 0.577219
vt 0.397077 0.397754
vt 0.597276 0.586464
vt 0.375000 0.402022
vt 0.277023 0.500000
s 0
usemtl Material.001
f 92/124/15 91/122/15 89/116/15 90/119/15 98/133/15 97/130/15 100/139/15 99/136/15
f 91/122/16 92/124/16 96/129/16 95/128/16
f 101/142/17 94/127/17 93/126/17 95/128/17 96/129/17 103/147/17 104/149/17 102/144/17
f 93/126/18 94/127/18 90/120/18 89/117/18
f 91/123/19 95/128/19 93/126/19 89/118/19
f 98/134/20 90/121/20 94/127/20 101/142/20
f 103/147/20 96/129/20 92/125/20 99/137/20
usemtl 
f 99/138/21 100/140/21 104/150/21 103/148/21
f 101/143/22 102/145/22 97/131/22 98/135/22
f 100/141/20 97/132/20 102/146/20 104/151/20
